<?xml version="1.0" encoding="UTF-8"?>
<!DOCTYPE svg PUBLIC "-//W3C//DTD SVG 1.1//EN" "http://www.w3.org/Graphics/SVG/1.1/DTD/svg11.dtd">
<!-- Creator: CorelDRAW 2020 (64 Bit) -->
<svg xmlns="http://www.w3.org/2000/svg" xml:space="preserve" width="110.378mm" height="59.5094mm" version="1.1" style="shape-rendering:geometricPrecision; text-rendering:geometricPrecision; image-rendering:optimizeQuality; fill-rule:evenodd; clip-rule:evenodd"
viewBox="0 0 4856.8 2618.5"
 xmlns:xlink="http://www.w3.org/1999/xlink"
 xmlns:xodm="http://www.corel.com/coreldraw/odm/2003">
 <defs>
  <style type="text/css">
   <![CDATA[
    .fil3 {fill:#D2D3D5}
    .fil2 {fill:#373435}
    .fil4 {fill:#DEAD05}
    .fil1 {fill:#373435;fill-rule:nonzero}
    .fil0 {fill:#DEAD05;fill-rule:nonzero}
   ]]>
  </style>
 </defs>
 <g id="Camada_x0020_1">
  <metadata id="CorelCorpID_0Corel-Layer"/>
  <polygon class="fil0" points="-0,2618.5 1918.58,2618.5 1918.58,2237.67 848.22,2237.67 1924.34,647.98 89.44,647.98 89.44,1014.39 1084.78,1014.39 "/>
  <path class="fil1" d="M4588.12 2041.69c-36.28,7.92 -73.13,11.77 -110.8,11.77 -187.14,0 -304.34,-121 -304.34,-283.56 0,-160.69 117.2,-279.78 296.79,-279.78 40.11,0 79.21,5.83 118.35,17.65l0 -168.35c-41.02,-9.24 -82.27,-13.76 -124.04,-13.76 -274.1,0 -468.8,196.6 -468.8,444.24 0,255.19 194.7,444.55 476.37,444.55 38.32,0 77.05,-3.54 116.47,-10.63l0 -162.13z"/>
  <path class="fil1" d="M1920.31 1769.89c0,247.63 200.38,444.55 453.69,444.55 150.71,0 301.59,-1.22 452.36,-1.22l0 -1207.98 -167.67 0 0 421.55c-80.03,-64.88 -178.73,-101.15 -284.68,-101.15 -255.19,0 -453.69,198.49 -453.69,444.24zm177.7 0c0,-156.9 122.88,-281.67 274.1,-281.67 151.24,0 274.11,124.77 274.11,281.67 0,156.89 -122.87,283.56 -274.11,283.56 -151.22,0 -274.1,-124.77 -274.1,-283.56z"/>
  <path class="fil1" d="M3161.65 1769.89c0,-156.9 122.88,-281.67 274.1,-281.67 151.24,0 274.1,124.77 274.1,281.67 0,156.89 -122.87,283.56 -274.1,283.56 -151.22,0 -274.1,-124.77 -274.1,-283.56zm-177.7 0c0,247.63 200.38,444.55 453.69,444.55 120.98,0 230.63,-43.79 317.58,-128.86 85.06,-83.19 134.22,-198.49 134.22,-315.69 0,-119.09 -47.26,-226.84 -134.22,-313.8 -85.07,-83.17 -196.6,-130.44 -317.58,-130.44 -255.19,0 -453.69,198.49 -453.69,444.24z"/>
  <polygon class="fil2" points="3772.05,0 4455.9,0 4455.9,364.98 4213.35,364.98 4213.35,683.85 3772.05,683.85 "/>
  <rect class="fil3" x="3185.4" y="324.1" width="505.07" height="505.07"/>
  <rect class="fil4" x="4270.96" y="422.59" width="585.84" height="585.84"/>
 </g>
</svg>
